<?xml version="1.0" standalone="no"?>
<!DOCTYPE svg PUBLIC "-//W3C//DTD SVG 20010904//EN"
 "http://www.w3.org/TR/2001/REC-SVG-20010904/DTD/svg10.dtd">
<svg version="1.0" xmlns="http://www.w3.org/2000/svg"
 width="1200.000000pt" height="1200.000000pt" viewBox="0 0 1200.000000 1200.000000"
 preserveAspectRatio="xMidYMid meet">
<metadata>
Created by potrace 1.11, written by Peter Selinger 2001-2013
</metadata>
<g transform="translate(0.000000,1200.000000) scale(0.100000,-0.100000)"
fill="#000000" stroke="none">
<path d="M0 6000 c0 -3993 3 -6000 10 -6000 7 0 10 2007 10 6000 0 3993 -3
6000 -10 6000 -7 0 -10 -2007 -10 -6000z"/>
<path d="M420 6000 l0 -5600 5600 0 5600 0 0 5600 0 5600 -5600 0 -5600 0 0
-5600z m3669 2250 c469 -50 829 -247 1099 -603 84 -110 221 -352 207 -365 -3
-4 -135 -77 -293 -164 l-287 -157 -52 110 c-165 348 -425 529 -806 558 -640
50 -1075 -341 -1157 -1039 -8 -63 -10 -277 -8 -630 4 -509 5 -540 27 -640 69
-324 205 -559 415 -716 236 -178 598 -238 921 -153 282 73 519 281 655 572 22
47 40 90 40 96 0 6 2 11 4 11 3 0 489 -291 544 -326 l22 -14 -36 -72 c-95
-188 -208 -341 -361 -489 -252 -243 -552 -382 -923 -428 -109 -14 -391 -14
-500 -1 -429 54 -791 236 -1042 525 -272 312 -433 729 -495 1277 -23 211 -23
636 0 847 83 736 358 1256 822 1554 197 126 461 216 725 246 106 12 368 12
479 1z m4112 -1 c303 -30 568 -123 806 -281 133 -88 320 -272 413 -406 59 -85
160 -256 160 -271 0 -6 -552 -331 -563 -331 -4 0 -18 25 -32 55 -67 152 -226
342 -364 435 -205 138 -472 201 -756 179 -548 -43 -902 -379 -1010 -959 -15
-79 -19 -171 -23 -560 -5 -601 6 -736 79 -954 126 -376 394 -625 765 -711 102
-24 282 -38 387 -30 492 34 835 276 913 645 9 44 14 137 14 288 l0 222 -445 0
-445 0 2 298 3 297 783 3 782 2 0 -1155 0 -1155 -305 0 -305 0 0 330 c0 274
-2 330 -14 330 -8 0 -18 -19 -25 -47 -20 -79 -96 -224 -156 -296 -170 -205
-439 -335 -778 -377 -145 -18 -443 -8 -577 20 -216 44 -413 125 -591 242 -138
91 -343 299 -442 448 -81 123 -176 311 -227 450 -146 395 -204 984 -145 1480
46 398 157 740 327 1014 134 217 335 419 540 544 207 126 454 213 693 241 50
6 101 13 115 15 57 8 325 5 421 -5z"/>
</g>
</svg>
